# xmcd
#
# Track frame offsets: 
#        150
#        22361
#        50982
#        73607
#        107786
#        136478
#        162738
#        192108
#        212827
#        239286
#        267516
#        302393
#        331860
#
# Disc length: 4695 seconds
#
# Revision: 0
# Processed by: cddbd v1.5.2PL0 Copyright (c) Steve Scherf et al.
# Submitted via: ExactAudioCopy v0.95b4
#
DISCID=ca12550d
DTITLE=Various Artist - 2011 Spring Celebration Party - Rob and Alice
DYEAR=2011
DGENRE=Blues
TTITLE0=01 - The Fire Down Below
TTITLE1=02 - Po-Jama People
TTITLE2=03 - Feelin' Alright
TTITLE3=04 - Steady Rollin' Man
TTITLE4=05 - Early in the Monring
TTITLE5=06 - Rider on the Storm
TTITLE6=07 - Lies (Ate the Cake)
TTITLE7=08 - Brown Sugar
TTITLE8=09 - Before You Accuse Me
TTITLE9=10 - Blues with a Feeling
TTITLE10=11 - I Just Want to Make Love to You
TTITLE11=12 - Baby Please Don't Go
TTITLE12=13 - Got My Mojo Workin'
EXTD=
EXTT0=
EXTT1=
EXTT2=
EXTT3=
EXTT4=
EXTT5=
EXTT6=
EXTT7=
EXTT8=
EXTT9=
EXTT10=
EXTT11=
EXTT12=
PLAYORDER=
